<svg width="22" height="22" viewBox="0 0 22 22" fill="none" xmlns="http://www.w3.org/2000/svg">
<circle cx="11" cy="11" r="6.82" fill="white"/>
<path d="M11 1.10001C5.52244 1.10001 1.1 5.52245 1.1 11C1.1 16.4776 5.52244 20.9 11 20.9C16.4776 20.9 20.9 16.4776 20.9 11C20.9 5.52245 16.4776 1.10001 11 1.10001ZM13.86 15.18L11 12.32L8.14 15.18C7.28235 16.0377 5.98382 14.7177 6.82 13.86L9.68 11L6.82 8.14001C5.96235 7.28236 7.28235 5.98383 8.14 6.82001L11 9.68001L13.86 6.82001C14.7176 5.96236 16.0162 7.28236 15.18 8.14001L12.32 11L15.18 13.86C16.0162 14.6962 14.6962 16.0162 13.86 15.18Z" fill="#01BBA6"/>
</svg>
