<svg width="58" height="58" viewBox="0 0 58 58" fill="none" xmlns="http://www.w3.org/2000/svg">
<circle cx="29" cy="29" r="29" fill="#F8E3B2"/>
<path d="M19.9126 28.5264C19.0289 27.6427 18.1464 26.7602 17.2626 25.8764V27.2327C18.3826 26.1127 19.5026 24.9927 20.629 23.8663L27.2402 17.2551H25.884L28.534 19.9051C28.899 20.2701 29.5265 20.2701 29.8902 19.9051C30.2552 19.5401 30.2552 18.9125 29.8902 18.5488C29.0002 17.6725 28.1165 16.7888 27.234 15.9051C26.869 15.5401 26.2415 15.5401 25.8777 15.9051C24.7577 17.0251 23.6377 18.1451 22.5113 19.2715C20.7188 21.064 18.9337 22.8491 17.1414 24.6414C16.7251 25.0576 16.3164 25.4664 15.9001 25.8826C15.5352 26.2476 15.5352 26.8751 15.9001 27.2389C16.7889 28.1164 17.6727 29.0001 18.5552 29.8839C18.9201 30.2489 19.5477 30.2489 19.9114 29.8839C20.2764 29.5126 20.2764 28.8914 19.9127 28.5264L19.9126 28.5264Z" fill="#EEAB0B"/>
<path d="M30.8051 22.1901L39.5088 30.8938C39.9188 31.3038 40.3275 31.7125 40.7375 32.1225V30.7662C39.6175 31.8862 38.4975 33.0062 37.3711 34.1326C35.5786 35.9252 33.7935 37.7102 32.0012 39.5026C31.585 39.9188 31.1762 40.3276 30.76 40.7438H32.1162L23.4125 32.0401C23.0026 31.6301 22.5938 31.2214 22.1838 30.8114C21.8188 30.4464 21.1913 30.4464 20.8275 30.8114C20.4626 31.1764 20.4626 31.8039 20.8275 32.1677L30.76 42.1001C31.125 42.4651 31.7525 42.4651 32.1163 42.1001L40.8526 33.3638C41.2689 32.9476 41.6776 32.5388 42.0938 32.1226C42.4588 31.7576 42.4588 31.1301 42.0938 30.7663L33.3902 22.0626C32.9802 21.6526 32.5714 21.2439 32.1614 20.8339C31.7964 20.4689 31.1689 20.4689 30.8052 20.8339C30.4339 21.1989 30.4402 21.8252 30.8052 22.1902L30.8051 22.1901Z" fill="#EEAB0B"/>
<path d="M22.1901 32.1613C23.1501 31.15 23.2013 29.5313 22.1901 28.5264C21.1851 27.5214 19.5663 27.5664 18.5552 28.5264C18.1777 28.8851 18.1964 29.5251 18.5552 29.8827C18.9327 30.2602 19.5339 30.2414 19.9115 29.8827C20.0964 29.7102 19.7839 29.9339 19.9952 29.8064C20.0202 29.7939 20.2577 29.6852 20.079 29.7489C20.1627 29.7164 20.2452 29.6977 20.329 29.6789C20.1939 29.7039 20.284 29.6852 20.3739 29.6852C20.4189 29.6852 20.4577 29.6852 20.5015 29.6914C20.399 29.6789 20.3864 29.6727 20.4565 29.6914C20.5202 29.7164 20.5977 29.7239 20.6615 29.7489C20.4827 29.6852 20.719 29.7877 20.7452 29.8064C20.9502 29.9214 20.6614 29.7102 20.829 29.8827C20.964 30.0177 20.8102 29.7989 20.9052 29.9664C20.9177 29.9852 21.0202 30.1902 20.9752 30.0877C20.9302 29.9789 21.0002 30.1964 21.0077 30.2152C21.0714 30.4077 21.0264 30.1064 21.0202 30.2989C21.0202 30.3439 20.9815 30.5802 21.0264 30.3827C21.0077 30.4664 20.9877 30.5489 20.9564 30.6327C21.0077 30.4789 20.9314 30.6652 20.8989 30.7164C20.8089 30.8827 20.9689 30.6527 20.8227 30.8002C20.4639 31.1777 20.4514 31.7852 20.8227 32.1564C21.1927 32.5202 21.8327 32.5389 22.1902 32.1614L22.1901 32.1613Z" fill="#EEAB0B"/>
<path d="M30.8051 20.8336C30.6201 21.0061 30.9326 20.7824 30.7151 20.9099C30.6901 20.9224 30.4526 21.0311 30.6314 20.9674C30.5476 20.9924 30.4651 21.0186 30.3814 21.0311C30.5164 21.0061 30.4264 21.0249 30.3364 21.0249C30.2914 21.0249 30.2526 21.0249 30.2089 21.0186C30.3114 21.0311 30.3239 21.0374 30.2539 21.0186C30.1901 20.9936 30.1126 20.9861 30.0489 20.9611C30.2276 21.0249 29.9914 20.9224 29.9651 20.9036C29.7601 20.7886 30.0489 20.9999 29.8814 20.8274C29.7464 20.6924 29.9001 20.9174 29.8051 20.7436C29.7926 20.7249 29.6901 20.5199 29.7351 20.6286C29.7801 20.7374 29.7101 20.5199 29.7026 20.5011C29.6389 20.3086 29.6776 20.6036 29.6901 20.4174C29.6901 20.3724 29.7289 20.1361 29.6839 20.3336C29.7026 20.2499 29.7226 20.1674 29.7476 20.0836C29.6964 20.2374 29.7726 20.0511 29.8051 19.9999C29.8951 19.8336 29.7351 20.0636 29.8814 19.9099C30.2401 19.5324 30.2526 18.9249 29.8814 18.5536C29.5226 18.1949 28.8826 18.1761 28.5251 18.5536C27.5651 19.5711 27.5201 21.1774 28.5251 22.1885C29.5301 23.1935 31.1426 23.1485 32.16 22.1885C32.5375 21.8297 32.5187 21.1897 32.16 20.8322C31.7837 20.456 31.1825 20.4747 30.805 20.8335L30.8051 20.8336Z" fill="#EEAB0B"/>
<path d="M24.1613 27.745C25.3575 26.5487 26.555 25.3512 27.745 24.1613C28.11 23.7963 28.11 23.1688 27.745 22.805C27.38 22.44 26.7524 22.44 26.3887 22.805C25.1924 24.0013 23.9949 25.1988 22.805 26.3887C22.44 26.7537 22.44 27.3812 22.805 27.745C23.17 28.11 23.79 28.11 24.1613 27.745Z" fill="#EEAB0B"/>
<path d="M25.5763 30.4074C27.3751 32.2061 29.1801 34.0112 30.9776 35.8087C31.2338 36.0649 31.4826 36.3136 31.7388 36.5699C32.1038 36.9349 32.7313 36.9349 33.0951 36.5699C33.4601 36.2049 33.4601 35.5774 33.0951 35.2136C31.2963 33.4149 29.4912 31.6098 27.6938 29.8124C27.4376 29.5561 27.1888 29.3074 26.9326 29.0511C26.5676 28.6861 25.94 28.6861 25.5763 29.0511C25.205 29.4161 25.205 30.0361 25.5763 30.4074Z" fill="#EEAB0B"/>
<path d="M29.0512 26.9325C30.3187 28.2 31.5924 29.4737 32.8585 30.7398C33.2235 31.1048 33.8511 31.1048 34.2148 30.7398C34.5798 30.3749 34.5798 29.7473 34.2148 29.3836C32.9473 28.1161 31.6735 26.8423 30.4074 25.5762C30.0424 25.2112 29.4149 25.2112 29.0512 25.5762C28.6799 25.9412 28.6799 26.5675 29.0512 26.9325Z" fill="#EEAB0B"/>
</svg>
