<svg width="136" height="116" viewBox="0 0 136 116" fill="none" xmlns="http://www.w3.org/2000/svg">
<path d="M114.236 18.869C102.05 -11.2536 85.6074 12.8263 55.3439 25.0693C25.0805 37.3123 -2.47045 34.1562 9.71557 64.2787C21.9016 94.4013 59.7021 103.533 89.9656 91.2897C120.229 79.0467 126.422 48.9916 114.236 18.869Z" fill="#F2FBFA"/>
<path d="M125.458 40.5694L119.186 34.6145L125.454 28.6566C126.177 27.9723 126.177 26.8717 125.457 26.1845L124.874 25.6299C124.532 25.2963 124.064 25.1152 123.572 25.1152H123.569C123.076 25.1152 122.614 25.2991 122.269 25.6285L115.998 31.5892L109.727 25.6358C109.008 24.9514 107.851 24.9486 107.127 25.6329L106.543 26.1818C106.192 26.5097 106 26.9545 106 27.4207C106 27.8898 106.194 28.3303 106.54 28.6596L112.815 34.616L106.546 40.5738C105.823 41.2582 105.823 42.3588 106.543 43.0474L107.126 43.6005C107.471 43.9342 107.938 44.1152 108.43 44.1152C108.919 44.1152 109.387 43.9299 109.733 43.602L116.002 37.6427L122.272 43.5951C122.628 43.9358 123.1 44.1083 123.575 44.1083C124.044 44.1083 124.514 43.9386 124.874 43.5979L125.457 43.0462C125.809 42.7211 126 42.2763 126 41.8087C126.003 41.3411 125.809 40.8991 125.463 40.5698L125.458 40.5694Z" fill="#FAC2C5"/>
<path d="M26.7291 86.249L23.5932 83.1148L26.7268 79.9791C27.0885 79.6189 27.0885 79.0397 26.7283 78.678L26.4372 78.3861C26.2661 78.2105 26.0319 78.1152 25.7858 78.1152H25.7843C25.5382 78.1152 25.307 78.212 25.1344 78.3854L21.9992 81.5226L18.8633 78.3892C18.5038 78.029 17.9253 78.0275 17.5636 78.3877L17.2717 78.6766C17.0961 78.8492 17 79.0833 17 79.3286C17 79.5755 17.0968 79.8074 17.2701 79.9807L20.4076 83.1156L17.2732 86.2513C16.9115 86.6115 16.9115 87.1908 17.2717 87.5532L17.5629 87.8443C17.7355 88.0199 17.9689 88.1152 18.215 88.1152C18.4596 88.1152 18.6937 88.0177 18.8663 87.8451L22.0008 84.7086L25.1359 87.8415C25.3138 88.0208 25.5502 88.1116 25.7873 88.1116C26.0222 88.1116 26.2571 88.0223 26.4372 87.843L26.7283 87.5526C26.9047 87.3815 27 87.1474 27 86.9013C27.0015 86.6552 26.9047 86.4225 26.7313 86.2492L26.7291 86.249Z" fill="#B2BDE3"/>
<path d="M69 27.1152C59.1854 27.1152 49.7758 31.0126 42.8375 37.9528C35.8969 44.8903 32 54.3007 32 64.1152C32 73.9298 35.8973 83.3394 42.8375 90.2777C49.7751 97.2183 59.1854 101.115 69 101.115C78.8146 101.115 88.2242 97.2179 95.1625 90.2777C102.103 83.3402 106 73.9298 106 64.1152C106 54.3007 102.103 44.891 95.1625 37.9528C88.2249 31.0122 78.8146 27.1152 69 27.1152ZM54.2 61.6486C53.1147 61.6516 52.1526 60.9425 51.8351 59.9034C51.5175 58.8644 51.9183 57.742 52.8187 57.1346L57.16 54.2486L52.8433 51.3627C51.7981 50.5764 51.5483 49.1087 52.276 48.0203C53.0036 46.9319 54.4559 46.602 55.5813 47.268L62.9813 52.2013C63.6627 52.6608 64.0728 53.4285 64.0728 54.2487C64.0728 55.0689 63.6627 55.8366 62.9813 56.2961L55.5813 61.2294C55.1743 61.5038 54.6933 61.6488 54.2 61.6488L54.2 61.6486ZM73.9333 81.3819H64.0667C59.9812 81.3819 56.6667 78.0673 56.6667 73.9819C56.6667 69.8965 59.9812 66.5819 64.0667 66.5819H73.9333C78.0188 66.5819 81.3333 69.8965 81.3333 73.9819C81.3333 78.0673 78.0188 81.3819 73.9333 81.3819ZM85.1569 57.1344C85.7396 57.4797 86.1558 58.0502 86.3069 58.71C86.458 59.3729 86.3285 60.0667 85.9523 60.6278C85.5762 61.192 84.9841 61.5774 84.3151 61.6885C83.646 61.8026 82.9616 61.6361 82.4189 61.2291L75.0189 56.2958C74.3375 55.8363 73.9274 55.0686 73.9274 54.2484C73.9274 53.4282 74.3375 52.6605 75.0189 52.201L82.4189 47.2677C83.5443 46.6017 84.9965 46.9316 85.7242 48.02C86.4519 49.1084 86.2021 50.5761 85.1569 51.3624L80.8402 54.2483L85.1569 57.1344Z" fill="#01BBA6"/>
<path d="M38 24.1152C38 27.4289 35.5376 30.1152 32.5 30.1152C29.4624 30.1152 27 27.4289 27 24.1152C27 20.8015 29.4624 18.1152 32.5 18.1152C35.5376 18.1152 38 20.8015 38 24.1152Z" fill="white"/>
<path fill-rule="evenodd" clip-rule="evenodd" d="M32.5 28.7819C34.8626 28.7819 36.7778 26.6926 36.7778 24.1152C36.7778 21.5379 34.8626 19.4486 32.5 19.4486C30.1374 19.4486 28.2222 21.5379 28.2222 24.1152C28.2222 26.6926 30.1374 28.7819 32.5 28.7819ZM32.5 30.1152C35.5376 30.1152 38 27.4289 38 24.1152C38 20.8015 35.5376 18.1152 32.5 18.1152C29.4624 18.1152 27 20.8015 27 24.1152C27 27.4289 29.4624 30.1152 32.5 30.1152Z" fill="#E3D5B2"/>
<path d="M122 81.1152C122 82.7721 120.657 84.1152 119 84.1152C117.343 84.1152 116 82.7721 116 81.1152C116 79.4584 117.343 78.1152 119 78.1152C120.657 78.1152 122 79.4584 122 81.1152Z" fill="white"/>
<path fill-rule="evenodd" clip-rule="evenodd" d="M119 82.9152C119.994 82.9152 120.8 82.1093 120.8 81.1152C120.8 80.1211 119.994 79.3152 119 79.3152C118.006 79.3152 117.2 80.1211 117.2 81.1152C117.2 82.1093 118.006 82.9152 119 82.9152ZM119 84.1152C120.657 84.1152 122 82.7721 122 81.1152C122 79.4584 120.657 78.1152 119 78.1152C117.343 78.1152 116 79.4584 116 81.1152C116 82.7721 117.343 84.1152 119 84.1152Z" fill="#E3D5B2"/>
</svg>
