<svg width="136" height="116" viewBox="0 0 136 116" fill="none" xmlns="http://www.w3.org/2000/svg">
<path d="M114.236 18.869C102.05 -11.2536 85.6074 12.8263 55.3439 25.0693C25.0805 37.3123 -2.47045 34.1562 9.71557 64.2787C21.9016 94.4013 59.7021 103.533 89.9656 91.2897C120.229 79.0467 126.422 48.9916 114.236 18.869Z" fill="#F2FBFA"/>
<path d="M125.458 40.5694L119.186 34.6145L125.454 28.6566C126.177 27.9723 126.177 26.8717 125.457 26.1845L124.874 25.6299C124.532 25.2963 124.064 25.1152 123.572 25.1152H123.569C123.076 25.1152 122.614 25.2991 122.269 25.6285L115.998 31.5892L109.727 25.6358C109.008 24.9514 107.851 24.9486 107.127 25.6329L106.543 26.1818C106.192 26.5097 106 26.9545 106 27.4207C106 27.8898 106.194 28.3303 106.54 28.6596L112.815 34.616L106.546 40.5738C105.823 41.2582 105.823 42.3588 106.543 43.0474L107.126 43.6005C107.471 43.9342 107.938 44.1152 108.43 44.1152C108.919 44.1152 109.387 43.9299 109.733 43.602L116.002 37.6427L122.272 43.5951C122.628 43.9358 123.1 44.1083 123.575 44.1083C124.044 44.1083 124.514 43.9386 124.874 43.5979L125.457 43.0462C125.809 42.7211 126 42.2763 126 41.8087C126.003 41.3411 125.809 40.8991 125.463 40.5698L125.458 40.5694Z" fill="#FAC2C5"/>
<path d="M26.7291 86.249L23.5932 83.1148L26.7268 79.9791C27.0885 79.6189 27.0885 79.0397 26.7283 78.678L26.4372 78.3861C26.2661 78.2105 26.0319 78.1152 25.7858 78.1152H25.7843C25.5382 78.1152 25.307 78.212 25.1344 78.3854L21.9992 81.5226L18.8633 78.3892C18.5038 78.029 17.9253 78.0275 17.5636 78.3877L17.2717 78.6766C17.0961 78.8492 17 79.0833 17 79.3286C17 79.5755 17.0968 79.8074 17.2701 79.9807L20.4076 83.1156L17.2732 86.2513C16.9115 86.6115 16.9115 87.1908 17.2717 87.5532L17.5629 87.8443C17.7355 88.0199 17.9689 88.1152 18.215 88.1152C18.4596 88.1152 18.6937 88.0177 18.8663 87.8451L22.0008 84.7086L25.1359 87.8415C25.3138 88.0208 25.5502 88.1116 25.7873 88.1116C26.0222 88.1116 26.2571 88.0223 26.4372 87.843L26.7283 87.5526C26.9047 87.3815 27 87.1474 27 86.9013C27.0015 86.6552 26.9047 86.4225 26.7313 86.2492L26.7291 86.249Z" fill="#B2BDE3"/>
<path d="M38 24.1152C38 27.4289 35.5376 30.1152 32.5 30.1152C29.4624 30.1152 27 27.4289 27 24.1152C27 20.8015 29.4624 18.1152 32.5 18.1152C35.5376 18.1152 38 20.8015 38 24.1152Z" fill="white"/>
<path fill-rule="evenodd" clip-rule="evenodd" d="M32.5 28.7819C34.8626 28.7819 36.7778 26.6926 36.7778 24.1152C36.7778 21.5379 34.8626 19.4486 32.5 19.4486C30.1374 19.4486 28.2222 21.5379 28.2222 24.1152C28.2222 26.6926 30.1374 28.7819 32.5 28.7819ZM32.5 30.1152C35.5376 30.1152 38 27.4289 38 24.1152C38 20.8015 35.5376 18.1152 32.5 18.1152C29.4624 18.1152 27 20.8015 27 24.1152C27 27.4289 29.4624 30.1152 32.5 30.1152Z" fill="#E3D5B2"/>
<path d="M122 81.1152C122 82.7721 120.657 84.1152 119 84.1152C117.343 84.1152 116 82.7721 116 81.1152C116 79.4584 117.343 78.1152 119 78.1152C120.657 78.1152 122 79.4584 122 81.1152Z" fill="white"/>
<path fill-rule="evenodd" clip-rule="evenodd" d="M119 82.9152C119.994 82.9152 120.8 82.1093 120.8 81.1152C120.8 80.1211 119.994 79.3152 119 79.3152C118.006 79.3152 117.2 80.1211 117.2 81.1152C117.2 82.1093 118.006 82.9152 119 82.9152ZM119 84.1152C120.657 84.1152 122 82.7721 122 81.1152C122 79.4584 120.657 78.1152 119 78.1152C117.343 78.1152 116 79.4584 116 81.1152C116 82.7721 117.343 84.1152 119 84.1152Z" fill="#E3D5B2"/>
<path d="M50.76 91.7983L31.76 76.248L42.6493 65.5191C45.5586 62.6423 49.2429 60.677 53.2505 59.8666C57.2613 59.0561 61.4175 59.4361 65.2145 60.9591H78.6216C81.4003 60.9591 83.6536 63.2093 83.6536 65.9881C83.6536 68.7669 81.4004 71.0202 78.6216 71.0202H68.24C67.3197 71.0202 66.5745 71.7653 66.5745 72.6856C66.5745 73.603 67.3197 74.3481 68.24 74.3481H80.0048C81.697 74.3481 83.312 73.6238 84.4342 72.3591L97.1193 57.8955C99.0371 55.7848 102.294 55.6036 104.434 57.4888C106.575 59.374 106.806 62.6277 104.954 64.7949L89.1155 83.234C86.7553 85.9385 83.3412 87.4912 79.7523 87.4912H55.0317L50.76 91.7983ZM47.3697 48.2496V41.4868C47.3905 39.5334 48.9818 37.9599 50.9352 37.9599H71.6688C72.9424 33.7147 76.1872 30.3447 80.3821 28.9114C84.577 27.4805 89.205 28.1603 92.8097 30.7371C96.4137 33.3169 98.5542 37.4762 98.5542 41.9084C98.5542 46.3407 96.4137 50.5002 92.8097 53.0796C89.2056 55.6565 84.5774 56.3364 80.3821 54.9024C76.1873 53.4715 72.9424 50.1019 71.6688 45.8569H66.0192V48.2823V48.2794C66.0667 49.2531 65.7105 50.2031 65.0365 50.9067C64.3656 51.6103 63.4334 52.011 62.4597 52.011C61.486 52.011 60.5537 51.6103 59.8828 50.9067C59.2089 50.2031 58.8556 49.2531 58.9001 48.2794V45.8272H54.4915V48.2526V48.2496C54.5361 49.2234 54.1828 50.1734 53.5089 50.877C52.8349 51.5806 51.9057 51.9784 50.932 51.9784C49.9583 51.9784 49.0261 51.5805 48.3522 50.877C47.6812 50.1734 47.325 49.2234 47.3695 48.2496L47.3697 48.2496ZM79.2122 41.9262H79.2152C79.2152 44.1824 80.5719 46.216 82.6589 47.0799C84.743 47.9438 87.1417 47.4658 88.7359 45.8716C90.3331 44.2774 90.8111 41.8757 89.9472 39.7916C89.0833 37.7075 87.0497 36.3479 84.7935 36.3479C81.7119 36.3538 79.2182 38.8476 79.2152 41.9262H79.2122Z" fill="#01BBA6"/>
</svg>
