<svg width="136" height="116" viewBox="0 0 136 116" fill="none" xmlns="http://www.w3.org/2000/svg">
<path d="M114.236 18.869C102.05 -11.2536 85.6074 12.8263 55.3439 25.0693C25.0805 37.3123 -2.47045 34.1562 9.71557 64.2787C21.9016 94.4013 59.7021 103.533 89.9656 91.2897C120.229 79.0467 126.422 48.9916 114.236 18.869Z" fill="#F2FBFA"/>
<path d="M125.458 40.5694L119.186 34.6145L125.454 28.6566C126.177 27.9723 126.177 26.8717 125.457 26.1845L124.874 25.6299C124.532 25.2963 124.064 25.1152 123.572 25.1152H123.569C123.076 25.1152 122.614 25.2991 122.269 25.6285L115.998 31.5892L109.727 25.6358C109.008 24.9514 107.851 24.9486 107.127 25.6329L106.543 26.1818C106.192 26.5097 106 26.9545 106 27.4207C106 27.8898 106.194 28.3303 106.54 28.6596L112.815 34.616L106.546 40.5738C105.823 41.2582 105.823 42.3588 106.543 43.0474L107.126 43.6005C107.471 43.9342 107.938 44.1152 108.43 44.1152C108.919 44.1152 109.387 43.9299 109.733 43.602L116.002 37.6427L122.272 43.5951C122.628 43.9358 123.1 44.1083 123.575 44.1083C124.044 44.1083 124.514 43.9386 124.874 43.5979L125.457 43.0462C125.809 42.7211 126 42.2763 126 41.8087C126.003 41.3411 125.809 40.8991 125.463 40.5698L125.458 40.5694Z" fill="#FAC2C5"/>
<path d="M26.7291 86.249L23.5932 83.1148L26.7268 79.9791C27.0885 79.6189 27.0885 79.0397 26.7283 78.678L26.4372 78.3861C26.2661 78.2105 26.0319 78.1152 25.7858 78.1152H25.7843C25.5382 78.1152 25.307 78.212 25.1344 78.3854L21.9992 81.5226L18.8633 78.3892C18.5038 78.029 17.9253 78.0275 17.5636 78.3877L17.2717 78.6766C17.0961 78.8492 17 79.0833 17 79.3286C17 79.5755 17.0968 79.8074 17.2701 79.9807L20.4076 83.1156L17.2732 86.2513C16.9115 86.6115 16.9115 87.1908 17.2717 87.5532L17.5629 87.8443C17.7355 88.0199 17.9689 88.1152 18.215 88.1152C18.4596 88.1152 18.6937 88.0177 18.8663 87.8451L22.0008 84.7086L25.1359 87.8415C25.3138 88.0208 25.5502 88.1116 25.7873 88.1116C26.0222 88.1116 26.2571 88.0223 26.4372 87.843L26.7283 87.5526C26.9047 87.3815 27 87.1474 27 86.9013C27.0015 86.6552 26.9047 86.4225 26.7313 86.2492L26.7291 86.249Z" fill="#B2BDE3"/>
<path d="M38 24.1152C38 27.4289 35.5376 30.1152 32.5 30.1152C29.4624 30.1152 27 27.4289 27 24.1152C27 20.8015 29.4624 18.1152 32.5 18.1152C35.5376 18.1152 38 20.8015 38 24.1152Z" fill="white"/>
<path fill-rule="evenodd" clip-rule="evenodd" d="M32.5 28.7819C34.8626 28.7819 36.7778 26.6926 36.7778 24.1152C36.7778 21.5379 34.8626 19.4486 32.5 19.4486C30.1374 19.4486 28.2222 21.5379 28.2222 24.1152C28.2222 26.6926 30.1374 28.7819 32.5 28.7819ZM32.5 30.1152C35.5376 30.1152 38 27.4289 38 24.1152C38 20.8015 35.5376 18.1152 32.5 18.1152C29.4624 18.1152 27 20.8015 27 24.1152C27 27.4289 29.4624 30.1152 32.5 30.1152Z" fill="#E3D5B2"/>
<path d="M122 81.1152C122 82.7721 120.657 84.1152 119 84.1152C117.343 84.1152 116 82.7721 116 81.1152C116 79.4584 117.343 78.1152 119 78.1152C120.657 78.1152 122 79.4584 122 81.1152Z" fill="white"/>
<path fill-rule="evenodd" clip-rule="evenodd" d="M119 82.9152C119.994 82.9152 120.8 82.1093 120.8 81.1152C120.8 80.1211 119.994 79.3152 119 79.3152C118.006 79.3152 117.2 80.1211 117.2 81.1152C117.2 82.1093 118.006 82.9152 119 82.9152ZM119 84.1152C120.657 84.1152 122 82.7721 122 81.1152C122 79.4584 120.657 78.1152 119 78.1152C117.343 78.1152 116 79.4584 116 81.1152C116 82.7721 117.343 84.1152 119 84.1152Z" fill="#E3D5B2"/>
<path d="M44.1457 59.7568C41.8259 57.437 39.5094 55.1204 37.1895 52.8006V56.3608C40.1295 53.4208 43.0695 50.4808 46.0263 47.524L63.3807 30.1696H59.8206L66.7768 37.1258C67.7349 38.0839 69.3821 38.0839 70.3369 37.1258C71.295 36.1677 71.295 34.5205 70.3369 33.5656C68.0007 31.2655 65.6808 28.9456 63.3643 26.6258C62.4062 25.6677 60.7589 25.6677 59.8041 26.6258C56.8641 29.5658 53.9241 32.5058 50.9673 35.4626C46.262 40.1679 41.5761 44.8538 36.8713 49.5586C35.7786 50.6513 34.7057 51.7242 33.613 52.8169C32.6549 53.775 32.6549 55.4223 33.613 56.3771C35.9459 58.6805 38.2658 61.0004 40.5824 63.3202C41.5405 64.2783 43.1877 64.2783 44.1426 63.3202C45.1007 62.3456 45.1007 60.7148 44.1458 59.7567L44.1457 59.7568Z" fill="#01BBA6"/>
<path d="M72.7385 43.124L95.5856 65.9712C96.6618 67.0474 97.7348 68.1204 98.8111 69.1966V65.6365C95.8711 68.5765 92.9311 71.5165 89.9743 74.4733C85.2689 79.1786 80.5831 83.8645 75.8782 88.5693C74.7855 89.662 73.7126 90.7349 72.6199 91.8276H76.1801L53.3329 68.9804C52.2567 67.9042 51.1837 66.8312 50.1075 65.755C49.1494 64.7969 47.5022 64.7969 46.5473 65.755C45.5892 66.7131 45.5892 68.3603 46.5473 69.3152L72.6201 95.3879C73.5782 96.346 75.2255 96.346 76.1803 95.3879L99.1131 72.4551C100.206 71.3624 101.279 70.2895 102.371 69.1968C103.329 68.2387 103.329 66.5915 102.371 65.6366L79.5242 42.7895C78.448 41.7133 77.375 40.6402 76.2988 39.564C75.3407 38.6059 73.6935 38.6059 72.7386 39.564C71.7641 40.5221 71.7805 42.1661 72.7386 43.1242L72.7385 43.124Z" fill="#01BBA6"/>
<path d="M50.1239 69.2984C52.6439 66.6438 52.7785 62.3946 50.1239 59.7568C47.4858 57.1187 43.2366 57.2368 40.5824 59.7568C39.5914 60.6985 39.6407 62.3785 40.5824 63.317C41.5733 64.3079 43.1516 64.2587 44.1426 63.317C44.6282 62.8642 43.8079 63.4515 44.3624 63.1168C44.428 63.084 45.0515 62.7985 44.5822 62.9659C44.8021 62.8806 45.0187 62.8313 45.2385 62.7821C44.8841 62.8478 45.1204 62.7985 45.3566 62.7985C45.4747 62.7985 45.5765 62.7985 45.6913 62.8149C45.4222 62.7821 45.3894 62.7657 45.5732 62.8149C45.7405 62.8806 45.944 62.9003 46.1113 62.9659C45.6421 62.7985 46.2622 63.0676 46.3312 63.1168C46.8693 63.4187 46.1113 62.8642 46.551 63.317C46.9054 63.6714 46.5018 63.0971 46.7512 63.5368C46.784 63.586 47.053 64.1242 46.9349 63.8551C46.8168 63.5696 47.0005 64.1406 47.0202 64.1898C47.1876 64.6951 47.0694 63.9043 47.053 64.4096C47.053 64.5278 46.9513 65.1479 47.0694 64.6295C47.0202 64.8493 46.9677 65.0659 46.8857 65.2857C47.0202 64.8821 46.8201 65.371 46.7347 65.5056C46.4985 65.942 46.9185 65.3382 46.5346 65.7254C45.5929 66.7164 45.56 68.311 46.5346 69.2856C47.5058 70.2404 49.1858 70.2897 50.1242 69.2987L50.1239 69.2984Z" fill="#01BBA6"/>
<path d="M72.7385 39.5632C72.2529 40.016 73.0732 39.4286 72.5023 39.7633C72.4366 39.7961 71.8132 40.0816 72.2824 39.9143C72.0626 39.9799 71.846 40.0488 71.6262 40.0816C71.9806 40.016 71.7443 40.0652 71.5081 40.0652C71.3899 40.0652 71.2882 40.0652 71.1734 40.0488C71.4424 40.0816 71.4752 40.098 71.2915 40.0488C71.1241 39.9832 70.9207 39.9635 70.7534 39.8979C71.2226 40.0652 70.6024 39.7961 70.5335 39.7469C69.9954 39.445 70.7534 39.9996 70.3137 39.5468C69.9593 39.1924 70.3629 39.783 70.1135 39.3269C70.0807 39.2777 69.8116 38.7396 69.9298 39.025C70.0479 39.3105 69.8641 38.7396 69.8445 38.6903C69.6771 38.185 69.7788 38.9594 69.8117 38.4705C69.8117 38.3524 69.9134 37.7322 69.7952 38.2507C69.8445 38.0308 69.897 37.8143 69.9626 37.5944C69.8281 37.998 70.0282 37.5091 70.1135 37.3746C70.3498 36.9382 69.9298 37.5419 70.3137 37.1383C71.2554 36.1474 71.2883 34.5527 70.3137 33.5781C69.372 32.6364 67.692 32.5872 66.7535 33.5781C64.2335 36.2491 64.1154 40.4655 66.7535 43.1197C69.3916 45.7578 73.6245 45.6397 76.2951 43.1197C77.286 42.178 77.2368 40.498 76.2951 39.5595C75.3074 38.5719 73.7291 38.6211 72.7382 39.5628L72.7385 39.5632Z" fill="#01BBA6"/>
<path d="M55.2985 57.7056C58.4387 54.5654 61.5821 51.4219 64.7057 48.2984C65.6638 47.3403 65.6638 45.6931 64.7057 44.7382C63.7475 43.7801 62.1003 43.7801 61.1455 44.7382C58.0053 47.8784 54.8619 51.0218 51.7383 54.1454C50.7802 55.1035 50.7802 56.7507 51.7383 57.7056C52.6964 58.6637 54.3239 58.6637 55.2985 57.7056Z" fill="#01BBA6"/>
<path d="M59.013 64.6944C63.7347 69.4161 68.4731 74.1545 73.1914 78.8728C73.864 79.5454 74.517 80.1984 75.1896 80.871C76.1477 81.8291 77.795 81.8291 78.7498 80.871C79.7079 79.9129 79.7079 78.2657 78.7498 77.3109C74.0281 72.5891 69.2897 67.8508 64.5715 63.1325C63.8988 62.4599 63.2458 61.8069 62.5732 61.1342C61.6151 60.1761 59.9678 60.1761 59.013 61.1342C58.0384 62.0923 58.0384 63.7198 59.013 64.6944Z" fill="#01BBA6"/>
<path d="M68.1345 55.5727C71.4616 58.8999 74.8053 62.2435 78.1288 65.567C79.0869 66.5251 80.7341 66.5251 81.689 65.567C82.6471 64.6089 82.6471 62.9617 81.689 62.0068C78.3618 58.6797 75.0182 55.3361 71.6947 52.0125C70.7366 51.0544 69.0893 51.0544 68.1345 52.0125C67.1599 52.9706 67.1599 54.6146 68.1345 55.5727Z" fill="#01BBA6"/>
</svg>
