<svg width="22" height="22" viewBox="0 0 22 22" fill="none" xmlns="http://www.w3.org/2000/svg">
<circle cx="11" cy="11.0001" r="6.82" fill="white"/>
<path d="M11 1.09998C5.52244 1.09998 1.1 5.52242 1.1 11C1.1 16.4775 5.52244 20.9 11 20.9C16.4776 20.9 20.9 16.4775 20.9 11C20.9 5.52242 16.4776 1.09998 11 1.09998ZM13.86 15.18L11 12.32L8.14 15.18C7.28235 16.0376 5.98382 14.7176 6.82 13.86L9.68 11L6.82 8.13998C5.96235 7.28233 7.28235 5.9838 8.14 6.81998L11 9.67998L13.86 6.81998C14.7176 5.96233 16.0162 7.28233 15.18 8.13998L12.32 11L15.18 13.86C16.0162 14.6962 14.6962 16.0162 13.86 15.18Z" fill="#E2313E"/>
</svg>
