<svg width="38" height="38" viewBox="0 0 38 38" fill="none" xmlns="http://www.w3.org/2000/svg">
<path d="M19 0.949997C9.04439 0.949997 0.950012 9.04438 0.950012 19C0.950012 28.9556 9.04439 37.05 19 37.05C28.9556 37.05 37.05 28.9556 37.05 19C37.05 9.04438 28.9556 0.949997 19 0.949997ZM19 33.44C11.0588 33.44 4.56001 26.98 4.56001 19C4.56001 11.02 11.02 4.56 19 4.56C26.98 4.56 33.44 11.02 33.44 19C33.44 26.98 26.9413 33.44 19 33.44Z" fill="#FFC53B"/>
<path d="M26.5612 21.9256C25.7255 21.3556 24.6226 21.5842 24.0526 22.4199C22.9126 24.0913 21.0512 25.0799 18.9982 25.0799C18.3139 25.0799 17.6296 24.9656 16.9839 24.7385C16.0339 24.3971 15.0082 24.8899 14.6653 25.8399C14.3239 26.7899 14.8167 27.8156 15.7667 28.1585C16.7924 28.5385 17.8953 28.7285 18.9967 28.7285C22.2267 28.7285 25.228 27.1328 27.0524 24.4729C27.5882 23.5986 27.3982 22.4586 26.561 21.9257L26.5612 21.9256Z" fill="#FFC53B"/>
<path d="M16.3013 14.8588C16.3013 16.4945 14.9742 17.8216 13.3384 17.8216C11.7012 17.8216 10.3741 16.4945 10.3741 14.8588C10.3741 13.2215 11.7012 11.8945 13.3384 11.8945C14.9742 11.8945 16.3013 13.2215 16.3013 14.8588Z" fill="#FFC53B"/>
<path d="M21.3556 16.2256L24.6999 18.3156C24.9656 18.467 25.2313 18.5442 25.5356 18.5442C26.067 18.5442 26.5999 18.2785 26.9042 17.7842C27.3599 17.0242 27.1328 16.0742 26.4099 15.6185L25.2313 14.8971L26.4099 14.1757C27.1699 13.72 27.3985 12.7314 26.9042 12.01C26.4485 11.25 25.4599 11.0214 24.7385 11.5157L21.3942 13.6057C20.9385 13.91 20.6342 14.4043 20.6342 14.9357C20.6342 15.4656 20.8999 15.9599 21.3556 16.2256V16.2256Z" fill="#FFC53B"/>
</svg>
