<svg width="136" height="116" viewBox="0 0 136 116" fill="none" xmlns="http://www.w3.org/2000/svg">
<path d="M114.236 18.869C102.05 -11.2536 85.6074 12.8263 55.3439 25.0693C25.0805 37.3123 -2.47045 34.1562 9.71557 64.2787C21.9016 94.4013 59.7021 103.533 89.9656 91.2897C120.229 79.0467 126.422 48.9916 114.236 18.869Z" fill="#F2FBFA"/>
<path d="M125.458 40.5694L119.186 34.6145L125.454 28.6566C126.177 27.9723 126.177 26.8717 125.457 26.1845L124.874 25.6299C124.532 25.2963 124.064 25.1152 123.572 25.1152H123.569C123.076 25.1152 122.614 25.2991 122.269 25.6285L115.998 31.5892L109.727 25.6358C109.008 24.9514 107.851 24.9486 107.127 25.6329L106.543 26.1818C106.192 26.5097 106 26.9545 106 27.4207C106 27.8898 106.194 28.3303 106.54 28.6596L112.815 34.616L106.546 40.5738C105.823 41.2582 105.823 42.3588 106.543 43.0474L107.126 43.6005C107.471 43.9342 107.938 44.1152 108.43 44.1152C108.919 44.1152 109.387 43.9299 109.733 43.602L116.002 37.6427L122.272 43.5951C122.628 43.9358 123.1 44.1083 123.575 44.1083C124.044 44.1083 124.514 43.9386 124.874 43.5979L125.457 43.0462C125.809 42.7211 126 42.2763 126 41.8087C126.003 41.3411 125.809 40.8991 125.463 40.5698L125.458 40.5694Z" fill="#FAC2C5"/>
<path d="M26.7291 86.249L23.5932 83.1148L26.7268 79.9791C27.0885 79.6189 27.0885 79.0397 26.7283 78.678L26.4372 78.3861C26.2661 78.2105 26.0319 78.1152 25.7858 78.1152H25.7843C25.5382 78.1152 25.307 78.212 25.1344 78.3854L21.9992 81.5226L18.8633 78.3892C18.5038 78.029 17.9253 78.0275 17.5636 78.3877L17.2717 78.6766C17.0961 78.8492 17 79.0833 17 79.3286C17 79.5755 17.0968 79.8074 17.2701 79.9807L20.4076 83.1156L17.2732 86.2513C16.9115 86.6115 16.9115 87.1908 17.2717 87.5532L17.5629 87.8443C17.7355 88.0199 17.9689 88.1152 18.215 88.1152C18.4596 88.1152 18.6937 88.0177 18.8663 87.8451L22.0008 84.7086L25.1359 87.8415C25.3138 88.0208 25.5502 88.1116 25.7873 88.1116C26.0222 88.1116 26.2571 88.0223 26.4372 87.843L26.7283 87.5526C26.9047 87.3815 27 87.1474 27 86.9013C27.0015 86.6552 26.9047 86.4225 26.7313 86.2492L26.7291 86.249Z" fill="#B2BDE3"/>
<path d="M38 24.1152C38 27.4289 35.5376 30.1152 32.5 30.1152C29.4624 30.1152 27 27.4289 27 24.1152C27 20.8015 29.4624 18.1152 32.5 18.1152C35.5376 18.1152 38 20.8015 38 24.1152Z" fill="white"/>
<path fill-rule="evenodd" clip-rule="evenodd" d="M32.5 28.7819C34.8626 28.7819 36.7778 26.6926 36.7778 24.1152C36.7778 21.5379 34.8626 19.4486 32.5 19.4486C30.1374 19.4486 28.2222 21.5379 28.2222 24.1152C28.2222 26.6926 30.1374 28.7819 32.5 28.7819ZM32.5 30.1152C35.5376 30.1152 38 27.4289 38 24.1152C38 20.8015 35.5376 18.1152 32.5 18.1152C29.4624 18.1152 27 20.8015 27 24.1152C27 27.4289 29.4624 30.1152 32.5 30.1152Z" fill="#E3D5B2"/>
<path d="M122 81.1152C122 82.7721 120.657 84.1152 119 84.1152C117.343 84.1152 116 82.7721 116 81.1152C116 79.4584 117.343 78.1152 119 78.1152C120.657 78.1152 122 79.4584 122 81.1152Z" fill="white"/>
<path fill-rule="evenodd" clip-rule="evenodd" d="M119 82.9152C119.994 82.9152 120.8 82.1093 120.8 81.1152C120.8 80.1211 119.994 79.3152 119 79.3152C118.006 79.3152 117.2 80.1211 117.2 81.1152C117.2 82.1093 118.006 82.9152 119 82.9152ZM119 84.1152C120.657 84.1152 122 82.7721 122 81.1152C122 79.4584 120.657 78.1152 119 78.1152C117.343 78.1152 116 79.4584 116 81.1152C116 82.7721 117.343 84.1152 119 84.1152Z" fill="#E3D5B2"/>
<path d="M84.5375 64.8722C84.4526 64.8489 84.3941 64.7677 84.397 64.6776V61.9135C86.0178 59.8171 87.2288 57.4363 87.969 54.8957C89.8032 53.0897 90.6194 50.2356 91.0611 48.6967C91.8101 46.1997 92.4917 42.579 90.5229 39.986L90.4322 39.8669C91.3829 35.3258 92.5678 24.5914 84.3502 19.1504C85.3156 18.1749 85.8364 16.8538 85.7954 15.4862C85.7895 15.3555 85.7252 15.2307 85.6228 15.1436C85.5204 15.0623 85.3888 15.0216 85.2571 15.0332C85.1518 15.0332 74.878 16.1917 69.9277 15.1755C64.8491 14.1273 59.2647 17.9542 58.1173 21.8652C56.1983 22.1149 54.4547 23.0934 53.2494 24.5916C51.0027 27.3354 50.321 31.711 51.2045 37.5763C51.263 38.3196 51.3537 39.0629 51.4883 39.8062L51.3976 39.9166C49.4288 42.5036 50.1455 46.1243 50.8593 48.6273C51.3011 50.1661 52.1114 53.0203 53.9457 54.8176V54.8234C54.6799 57.3785 55.8911 59.7768 57.5176 61.8905V64.6111C57.5234 64.7011 57.462 64.7824 57.3742 64.8057C50.3503 66.4781 34 71.6202 34 84.4652C34 85.8647 35.1438 87 36.5539 87H105.366C106.776 87 107.92 85.8648 107.92 84.4652C107.92 71.6202 91.5698 66.4781 84.5368 64.8726L84.5375 64.8722ZM70.9605 74.7209C66.6045 74.7819 62.4858 72.7494 59.9051 69.2652C61.0313 68.6439 61.8885 67.6335 62.3097 66.4256C63.4624 67.1805 64.7027 67.7931 66.0016 68.2548C69.2109 69.3813 72.7096 69.3813 75.9187 68.2548C77.2118 67.7844 78.4463 67.166 79.596 66.411C80.0143 67.6334 80.8744 68.6583 82.0154 69.2855C79.4293 72.7639 75.3132 74.7876 70.9599 74.7209H70.9605ZM55.2715 47.4567C54.3647 44.2832 54.7479 43.1304 55.0551 42.7297C55.2686 42.4597 55.608 42.3145 55.9532 42.3407H56.1696C56.4329 42.3552 56.6582 42.1577 56.6787 41.8964C56.6787 41.8296 57.2491 34.9918 61.3301 32.5294C63.3662 31.2953 65.9874 31.3477 69.112 32.6716C75.507 35.4068 80.2693 35.2122 83.1691 34.5734C86.4719 36.9979 85.5211 40.8624 85.2958 41.6203V41.7161C85.2402 41.8729 85.2666 42.0471 85.3689 42.1778C85.4713 42.3084 85.6322 42.3781 85.7961 42.3636C86.2027 42.291 86.6181 42.4333 86.8901 42.744C87.1973 43.1446 87.5805 44.2973 86.6737 47.4709C85.5123 51.5359 84.5703 51.9307 84.307 51.9307C84.0817 51.9452 83.8974 52.1165 83.8652 52.3401C83.1924 56.6721 79.7169 62.055 74.384 63.966C72.1724 64.7442 69.7589 64.7442 67.5473 63.966C61.9743 62.0236 58.7386 56.5766 58.0803 52.3319C58.0481 52.1083 57.8638 51.9399 57.6386 51.9225C57.3753 51.9022 56.4333 51.5218 55.2719 47.4569L55.2715 47.4567Z" fill="#01BBA6"/>
</svg>
