<svg width="136" height="116" viewBox="0 0 136 116" fill="none" xmlns="http://www.w3.org/2000/svg">
<path d="M114.236 18.869C102.05 -11.2536 85.6073 12.8263 55.3439 25.0693C25.0804 37.3123 -2.47046 34.1562 9.71555 64.2787C21.9016 94.4013 59.7021 103.533 89.9656 91.2897C120.229 79.0467 126.422 48.9916 114.236 18.869Z" fill="#F2FBFA"/>
<path d="M125.458 40.5694L119.186 34.6145L125.454 28.6566C126.177 27.9723 126.177 26.8717 125.457 26.1845L124.874 25.6299C124.532 25.2963 124.064 25.1152 123.572 25.1152H123.569C123.076 25.1152 122.614 25.2991 122.269 25.6285L115.998 31.5892L109.727 25.6358C109.008 24.9514 107.851 24.9486 107.127 25.6329L106.543 26.1818C106.192 26.5097 106 26.9545 106 27.4207C106 27.8898 106.194 28.3303 106.54 28.6596L112.815 34.616L106.546 40.5738C105.823 41.2582 105.823 42.3588 106.543 43.0474L107.126 43.6005C107.471 43.9342 107.938 44.1152 108.43 44.1152C108.919 44.1152 109.387 43.9299 109.733 43.602L116.002 37.6427L122.272 43.5951C122.628 43.9358 123.1 44.1083 123.575 44.1083C124.044 44.1083 124.514 43.9386 124.874 43.5979L125.457 43.0462C125.809 42.7211 126 42.2763 126 41.8087C126.003 41.3411 125.809 40.8991 125.463 40.5698L125.458 40.5694Z" fill="#FAC2C5"/>
<path d="M26.7291 86.249L23.5932 83.1148L26.7268 79.9791C27.0885 79.6189 27.0885 79.0397 26.7283 78.678L26.4372 78.3861C26.2661 78.2105 26.0319 78.1152 25.7858 78.1152H25.7843C25.5382 78.1152 25.307 78.212 25.1344 78.3854L21.9992 81.5226L18.8633 78.3892C18.5038 78.029 17.9253 78.0275 17.5636 78.3877L17.2717 78.6766C17.0961 78.8492 17 79.0833 17 79.3286C17 79.5755 17.0968 79.8074 17.2701 79.9807L20.4076 83.1156L17.2732 86.2513C16.9115 86.6115 16.9115 87.1908 17.2717 87.5532L17.5629 87.8443C17.7355 88.0199 17.9689 88.1152 18.215 88.1152C18.4596 88.1152 18.6937 88.0177 18.8663 87.8451L22.0008 84.7086L25.1359 87.8415C25.3138 88.0208 25.5502 88.1116 25.7873 88.1116C26.0222 88.1116 26.2571 88.0223 26.4372 87.843L26.7283 87.5526C26.9047 87.3815 27 87.1474 27 86.9013C27.0015 86.6552 26.9047 86.4225 26.7313 86.2492L26.7291 86.249Z" fill="#B2BDE3"/>
<path d="M38 24.1152C38 27.4289 35.5376 30.1152 32.5 30.1152C29.4624 30.1152 27 27.4289 27 24.1152C27 20.8015 29.4624 18.1152 32.5 18.1152C35.5376 18.1152 38 20.8015 38 24.1152Z" fill="white"/>
<path fill-rule="evenodd" clip-rule="evenodd" d="M32.5 28.7819C34.8626 28.7819 36.7778 26.6926 36.7778 24.1152C36.7778 21.5379 34.8626 19.4486 32.5 19.4486C30.1374 19.4486 28.2222 21.5379 28.2222 24.1152C28.2222 26.6926 30.1374 28.7819 32.5 28.7819ZM32.5 30.1152C35.5376 30.1152 38 27.4289 38 24.1152C38 20.8015 35.5376 18.1152 32.5 18.1152C29.4624 18.1152 27 20.8015 27 24.1152C27 27.4289 29.4624 30.1152 32.5 30.1152Z" fill="#E3D5B2"/>
<path d="M122 81.1152C122 82.7721 120.657 84.1152 119 84.1152C117.343 84.1152 116 82.7721 116 81.1152C116 79.4584 117.343 78.1152 119 78.1152C120.657 78.1152 122 79.4584 122 81.1152Z" fill="white"/>
<path fill-rule="evenodd" clip-rule="evenodd" d="M119 82.9152C119.994 82.9152 120.8 82.1093 120.8 81.1152C120.8 80.1211 119.994 79.3152 119 79.3152C118.006 79.3152 117.2 80.1211 117.2 81.1152C117.2 82.1093 118.006 82.9152 119 82.9152ZM119 84.1152C120.657 84.1152 122 82.7721 122 81.1152C122 79.4584 120.657 78.1152 119 78.1152C117.343 78.1152 116 79.4584 116 81.1152C116 82.7721 117.343 84.1152 119 84.1152Z" fill="#E3D5B2"/>
<path d="M38.1458 66.7568C35.8259 64.437 33.5094 62.1204 31.1896 59.8006V63.3608C34.1296 60.4208 37.0696 57.4808 40.0264 54.524L57.3808 37.1696H53.8206L60.7768 44.1258C61.7349 45.0839 63.3821 45.0839 64.337 44.1258C65.2951 43.1677 65.2951 41.5205 64.337 40.5656C62.0008 38.2655 59.6808 35.9456 57.3643 33.6258C56.4062 32.6677 54.7589 32.6677 53.8041 33.6258C50.8641 36.5658 47.9241 39.5058 44.9673 42.4626C40.262 47.1679 35.5761 51.8538 30.8713 56.5586C29.7786 57.6513 28.7057 58.7242 27.613 59.8169C26.6549 60.775 26.6549 62.4223 27.613 63.3771C29.9459 65.6805 32.2658 68.0004 34.5824 70.3202C35.5405 71.2783 37.1877 71.2783 38.1426 70.3202C39.1007 69.3456 39.1007 67.7148 38.1459 66.7567L38.1458 66.7568Z" fill="#01BBA6"/>
<path d="M66.7385 50.124L89.5856 72.9712C90.6618 74.0474 91.7349 75.1204 92.8111 76.1966V72.6365C89.8711 75.5765 86.9311 78.5165 83.9743 81.4733C79.2689 86.1786 74.5831 90.8645 69.8782 95.5693C68.7856 96.662 67.7126 97.7349 66.62 98.8276H70.1801L47.333 75.9804C46.2568 74.9042 45.1837 73.8312 44.1075 72.755C43.1494 71.7969 41.5022 71.7969 40.5474 72.755C39.5893 73.7131 39.5893 75.3603 40.5474 76.3152L66.6201 102.388C67.5782 103.346 69.2255 103.346 70.1803 102.388L93.1131 79.4551C94.2058 78.3624 95.2787 77.2895 96.3714 76.1968C97.3295 75.2387 97.3295 73.5915 96.3714 72.6366L73.5243 49.7895C72.448 48.7133 71.375 47.6402 70.2988 46.564C69.3407 45.6059 67.6935 45.6059 66.7387 46.564C65.7641 47.5221 65.7806 49.1661 66.7387 50.1242L66.7385 50.124Z" fill="#01BBA6"/>
<path d="M44.1239 76.2984C46.6439 73.6438 46.7785 69.3946 44.1239 66.7568C41.4858 64.1187 37.2366 64.2368 34.5824 66.7568C33.5914 67.6985 33.6407 69.3785 34.5824 70.317C35.5733 71.3079 37.1516 71.2587 38.1426 70.317C38.6282 69.8642 37.8079 70.4515 38.3624 70.1168C38.428 70.084 39.0515 69.7985 38.5822 69.9659C38.8021 69.8806 39.0187 69.8313 39.2385 69.7821C38.8841 69.8478 39.1204 69.7985 39.3566 69.7985C39.4747 69.7985 39.5765 69.7985 39.6913 69.8149C39.4222 69.7821 39.3894 69.7657 39.5732 69.8149C39.7405 69.8806 39.944 69.9003 40.1113 69.9659C39.6421 69.7985 40.2622 70.0676 40.3312 70.1168C40.8693 70.4187 40.1113 69.8642 40.551 70.317C40.9054 70.6714 40.5018 70.0971 40.7512 70.5368C40.784 70.586 41.053 71.1242 40.9349 70.8551C40.8168 70.5696 41.0005 71.1406 41.0202 71.1898C41.1876 71.6951 41.0694 70.9043 41.053 71.4096C41.053 71.5278 40.9513 72.1479 41.0694 71.6295C41.0202 71.8493 40.9677 72.0659 40.8857 72.2857C41.0202 71.8821 40.8201 72.371 40.7347 72.5056C40.4985 72.942 40.9185 72.3382 40.5346 72.7254C39.5929 73.7164 39.56 75.311 40.5346 76.2856C41.5058 77.2404 43.1858 77.2897 44.1242 76.2987L44.1239 76.2984Z" fill="#01BBA6"/>
<path d="M66.7385 46.5632C66.2529 47.016 67.0732 46.4286 66.5023 46.7633C66.4367 46.7961 65.8132 47.0816 66.2825 46.9143C66.0626 46.9799 65.846 47.0488 65.6262 47.0816C65.9806 47.016 65.7443 47.0652 65.5081 47.0652C65.39 47.0652 65.2882 47.0652 65.1734 47.0488C65.4425 47.0816 65.4753 47.098 65.2915 47.0488C65.1242 46.9832 64.9207 46.9635 64.7534 46.8979C65.2226 47.0652 64.6025 46.7961 64.5335 46.7469C63.9954 46.445 64.7534 46.9996 64.3137 46.5468C63.9593 46.1924 64.3629 46.783 64.1135 46.3269C64.0807 46.2777 63.8117 45.7396 63.9298 46.025C64.0479 46.3105 63.8642 45.7396 63.8445 45.6903C63.6771 45.185 63.7789 45.9594 63.8117 45.4705C63.8117 45.3524 63.9134 44.7322 63.7953 45.2507C63.8445 45.0308 63.897 44.8143 63.9626 44.5944C63.8281 44.998 64.0282 44.5091 64.1136 44.3746C64.3498 43.9382 63.9298 44.5419 64.3137 44.1383C65.2554 43.1474 65.2883 41.5527 64.3137 40.5781C63.372 39.6364 61.692 39.5872 60.7535 40.5781C58.2335 43.2491 58.1154 47.4655 60.7535 50.1197C63.3916 52.7578 67.6245 52.6397 70.2951 50.1197C71.286 49.178 71.2368 47.498 70.2951 46.5595C69.3074 45.5719 67.7291 45.6211 66.7382 46.5628L66.7385 46.5632Z" fill="#01BBA6"/>
<path d="M49.2985 64.7056C52.4387 61.5654 55.5821 58.4219 58.7057 55.2984C59.6638 54.3403 59.6638 52.6931 58.7057 51.7382C57.7476 50.7801 56.1003 50.7801 55.1455 51.7382C52.0053 54.8784 48.8619 58.0218 45.7383 61.1454C44.7802 62.1035 44.7802 63.7507 45.7383 64.7056C46.6964 65.6637 48.3239 65.6637 49.2985 64.7056Z" fill="#01BBA6"/>
<path d="M53.013 71.6944C57.7347 76.4161 62.4731 81.1545 67.1914 85.8728C67.864 86.5454 68.517 87.1984 69.1896 87.871C70.1478 88.8291 71.795 88.8291 72.7498 87.871C73.7079 86.9129 73.7079 85.2657 72.7498 84.3109C68.0281 79.5891 63.2897 74.8508 58.5715 70.1325C57.8988 69.4599 57.2459 68.8069 56.5732 68.1342C55.6151 67.1761 53.9678 67.1761 53.013 68.1342C52.0384 69.0923 52.0384 70.7198 53.013 71.6944Z" fill="#01BBA6"/>
<path d="M62.1345 62.5727C65.4617 65.8999 68.8053 69.2435 72.1288 72.567C73.0869 73.5251 74.7342 73.5251 75.689 72.567C76.6471 71.6089 76.6471 69.9617 75.689 69.0068C72.3619 65.6797 69.0182 62.3361 65.6947 59.0125C64.7366 58.0544 63.0893 58.0544 62.1345 59.0125C61.16 59.9706 61.16 61.6146 62.1345 62.5727Z" fill="#01BBA6"/>
</svg>
